<?xml version="1.0" standalone="no"?>
<!DOCTYPE svg PUBLIC "-//W3C//DTD SVG 20010904//EN"
 "http://www.w3.org/TR/2001/REC-SVG-20010904/DTD/svg10.dtd">
<svg version="1.0" xmlns="http://www.w3.org/2000/svg"
 width="512.000000pt" height="512.000000pt" viewBox="0 0 512.000000 512.000000"
 preserveAspectRatio="xMidYMid meet">
<metadata>
Created by potrace 1.11, written by Peter Selinger 2001-2013
</metadata>
<g transform="translate(0.000000,512.000000) scale(0.100000,-0.100000)"
fill="#000000" stroke="none">
<path d="M2375 4470 c-354 -62 -630 -263 -773 -563 -37 -77 -58 -129 -73 -185
-10 -34 -19 -46 -45 -57 -44 -18 -51 -36 -52 -135 0 -79 15 -140 36 -140 12 0
7 -730 -5 -765 -6 -16 -29 -78 -52 -137 -36 -92 -73 -204 -85 -258 -2 -8 -9
-33 -15 -56 -32 -119 -45 -239 -45 -404 0 -126 3 -166 24 -273 19 -101 19
-158 -3 -227 -48 -156 -11 -247 108 -263 27 -4 48 -15 65 -34 34 -37 76 -64
111 -70 54 -8 117 45 149 125 7 18 30 46 51 62 21 17 40 43 44 59 11 50 -10
78 -100 136 -78 51 -111 86 -98 108 3 5 10 2 16 -6 43 -51 215 -153 290 -172
22 -6 34 -21 58 -74 49 -107 89 -210 89 -231 0 -10 7 -23 17 -28 15 -9 14 -10
-4 -16 -49 -15 -88 -156 -55 -195 24 -26 91 -40 187 -38 67 2 90 7 134 30 29
15 59 27 66 27 29 0 39 31 37 110 -3 70 -1 80 17 90 32 17 43 48 45 127 1 54
6 77 19 90 28 28 41 2 45 -90 3 -71 7 -85 29 -109 23 -24 25 -34 25 -107 -1
-82 11 -111 42 -111 8 0 35 -12 62 -27 42 -24 62 -28 134 -30 90 -1 176 16
191 38 26 38 -8 164 -50 191 -17 10 -17 13 -5 22 8 6 16 20 18 31 8 34 45 137
55 149 5 6 9 13 9 16 0 14 54 120 61 120 5 0 46 14 91 31 78 30 198 102 248
149 12 11 22 16 22 11 0 -20 -23 -60 -38 -66 -40 -15 -150 -97 -159 -118 -19
-42 -4 -87 40 -117 19 -13 44 -47 62 -83 35 -73 81 -109 130 -104 40 5 98 39
123 73 12 18 31 27 57 31 52 7 91 27 112 59 19 29 25 113 11 159 -5 17 -11 38
-13 48 -2 9 -7 22 -10 27 -7 12 -8 110 0 155 2 17 11 66 19 110 15 78 16 354
2 430 -3 17 -7 44 -10 60 -18 120 -69 294 -142 480 l-47 120 -1 358 c-1 197 1
362 4 366 3 4 13 10 23 14 27 10 37 52 35 144 -1 72 -5 88 -24 109 -13 13 -30
24 -38 24 -10 0 -21 20 -32 58 -23 79 -83 207 -137 289 -147 228 -396 394
-677 450 -114 23 -306 24 -425 3z"/>
</g>
</svg>
